<svg version="1.0" xmlns="http://www.w3.org/2000/svg"
 width="1024.000000pt" height="1024.000000pt" viewBox="0 0 1024.000000 1024.000000"
 preserveAspectRatio="xMidYMid meet">

<g transform="translate(0.000000,1024.000000) scale(0.100000,-0.100000)"
fill="#8b8889" stroke="none">

<path d="M0 5120 l0 -5120 5120 0 5120 0 0 5120 0 5120 -5120 0 -5120 0 0
-5120z m8144 2959 l506 -512 0 -146 0 -146 -237 -237 -238 -238 -205 -1 c-224
-1 -259 5 -329 58 -81 62 -113 121 -119 223 -5 97 21 171 83 234 74 73 119 89
274 95 90 4 136 10 138 18 2 6 -134 149 -304 317 l-308 305 -1230 1 -1230 0
-397 -397 -398 -398 0 -210 0 -210 347 -347 348 -348 375 0 375 0 358 -358
357 -357 0 -435 0 -436 -538 -537 -538 -537 -1509 0 -1510 0 -412 412 -413
413 0 147 0 148 233 236 232 236 175 -4 c152 -3 181 -6 221 -24 66 -31 114
-78 146 -142 25 -50 28 -68 28 -147 -1 -80 -4 -96 -30 -144 -16 -29 -47 -68
-68 -86 -67 -57 -101 -69 -219 -73 l-108 -4 0 -26 c0 -21 43 -69 202 -229
l203 -203 1325 0 1325 0 377 377 378 378 0 230 0 231 -203 202 -204 202 -379
0 -379 0 -507 507 -508 508 0 430 0 430 548 551 547 551 1457 1 1456 2 506
-511z m-5383 -2498 l396 -401 817 0 c543 0 816 3 816 10 0 25 46 103 82 141
60 61 127 89 219 89 65 0 85 -4 137 -30 65 -33 109 -76 144 -143 19 -34 23
-58 23 -127 0 -73 -4 -92 -27 -135 -73 -138 -224 -204 -370 -161 -71 20 -158
96 -185 161 l-18 45 -845 0 -845 0 -447 447 -448 446 0 708 0 708 73 3 72 3 5
-681 5 -681 396 -402z m4462 1050 l487 -486 0 -686 0 -687 -37 9 c-21 5 -53 9
-70 9 l-33 0 0 642 0 643 -447 447 -448 448 -668 0 c-368 0 -667 -3 -665 -7
29 -56 42 -99 46 -155 l5 -68 596 0 596 0 388 -388 387 -387 0 -596 0 -595
-47 -11 c-27 -6 -58 -14 -70 -18 l-23 -7 0 573 0 574 -358 358 -357 357 -579
0 -579 0 -44 -41 c-68 -63 -142 -92 -233 -93 -66 -1 -84 3 -143 32 -67 33
-115 80 -153 152 -15 28 -19 56 -19 140 0 103 1 107 35 164 53 88 131 142 225
156 27 4 426 8 885 7 l835 0 488 -486z m-4943 -4147 l0 -206 37 32 c20 18 53
39 72 48 45 19 182 21 236 3 96 -32 172 -102 205 -191 9 -25 14 -122 18 -337
l4 -303 -105 0 -106 0 -3 268 c-3 243 -5 271 -23 307 -44 87 -183 112 -264 48
-69 -56 -71 -66 -71 -360 l0 -263 -105 0 -105 0 0 580 0 580 105 0 105 0 0
-206z m6410 -124 l0 -331 152 166 151 165 120 0 121 0 -25 -27 c-14 -16 -94
-101 -178 -191 l-153 -162 73 -88 c40 -48 124 -146 186 -219 62 -73 113 -135
113 -138 0 -3 -57 -4 -127 -3 l-127 3 -153 183 -153 183 0 -186 0 -185 -105 0
-105 0 0 580 0 580 105 0 105 0 0 -330z m-1302 290 c18 -11 40 -36 47 -55 54
-129 -134 -222 -213 -105 -70 104 57 226 166 160z m-3906 -284 c81 -18 118
-36 174 -88 83 -76 134 -201 134 -330 l0 -58 -306 0 -306 0 7 -32 c23 -105
107 -168 222 -168 65 0 132 26 174 66 l27 26 83 -48 83 -48 -57 -51 c-178
-162 -441 -166 -616 -9 -207 186 -155 582 93 704 100 49 178 59 288 36z m954
2 c3 -3 2 -50 -2 -104 l-7 -99 -71 0 c-119 0 -182 -49 -205 -156 -6 -27 -11
-147 -11 -264 l0 -215 -105 0 -105 0 0 415 0 415 105 0 105 0 0 -57 c1 -48 3
-55 12 -38 28 52 80 90 143 106 32 8 131 6 141 -3z m630 -1 c2 -2 1 -48 -3
-103 l-6 -99 -71 0 c-98 0 -142 -23 -178 -95 l-28 -54 0 -243 0 -243 -105 0
-105 0 0 415 0 415 100 0 100 0 0 -57 c1 -48 3 -55 12 -38 43 78 128 118 232
110 27 -3 50 -6 52 -8z m-3321 -16 c69 -24 147 -81 176 -127 12 -19 20 -37 18
-38 -9 -8 -140 -86 -145 -86 -2 0 -15 9 -27 21 -69 65 -183 82 -266 40 -87
-45 -130 -117 -131 -219 0 -144 95 -241 236 -242 64 0 144 31 178 69 17 19 20
18 98 -32 l81 -51 -59 -55 c-84 -78 -163 -112 -275 -119 -111 -6 -195 14 -277
67 -73 48 -117 99 -156 181 -29 61 -31 72 -31 175 0 90 4 120 23 165 47 117
148 212 267 250 83 26 217 27 290 1z m5086 -13 c102 -47 183 -137 220 -246 23
-66 27 -204 9 -273 -32 -122 -113 -218 -228 -272 -62 -30 -75 -32 -172 -32
-113 0 -165 16 -237 71 l-33 25 0 -205 0 -206 -105 0 -105 0 -2 580 -3 580 98
0 97 0 1 -57 c0 -56 1 -57 16 -35 19 28 86 74 128 90 17 7 78 10 145 9 100 -2
122 -6 171 -29z m1300 16 c72 -21 145 -69 180 -117 16 -22 29 -43 29 -48 0 -7
-135 -89 -147 -89 -3 0 -21 13 -39 30 -43 37 -130 64 -181 54 -125 -22 -203
-116 -203 -244 0 -143 99 -242 240 -242 64 0 115 20 163 61 l33 30 78 -51 77
-51 -48 -49 c-28 -29 -78 -64 -121 -85 -64 -32 -83 -37 -170 -41 -81 -3 -107
-1 -162 18 -128 43 -209 113 -264 229 -29 62 -31 73 -31 176 0 136 22 198 97
281 64 70 119 107 194 133 73 25 198 28 275 5z m-2648 -201 c42 -115 91 -248
108 -297 l32 -89 29 84 c16 46 64 180 105 297 l76 212 108 0 c60 0 109 -2 109
-5 0 -2 -62 -161 -139 -352 -76 -192 -166 -418 -200 -505 -69 -175 -101 -226
-167 -268 -67 -42 -190 -63 -261 -44 -25 7 -29 37 -17 128 l7 46 48 0 c88 0
139 34 179 121 28 60 47 1 -155 484 -81 193 -151 360 -156 373 l-9 22 114 0
113 0 76 -207z m1947 -208 l0 -415 -110 0 -110 0 0 415 0 415 110 0 110 0 0
-415z"/>

<path d="M4287 7932 l-507 -507 0 -375 0 -375 458 -458 457 -457 377 0 376 0
256 -251 256 -251 0 -282 0 -281 -423 -423 -422 -422 -1380 0 -1380 0 -249
249 -249 249 -1 86 c-1 84 0 86 32 118 32 33 33 33 156 38 115 5 127 8 164 34
97 67 97 197 -1 270 -25 18 -45 21 -164 24 l-136 4 -184 -184 -183 -183 0
-100 0 -100 363 -363 363 -362 1454 0 1455 1 493 490 492 490 0 377 0 377
-318 318 -317 317 -380 0 -380 0 -387 387 -388 388 0 270 0 270 438 438 437
437 1310 0 1310 0 343 -343 342 -343 0 -74 c0 -81 -19 -128 -61 -150 -12 -7
-85 -14 -168 -17 -126 -4 -151 -7 -185 -26 -55 -31 -79 -67 -84 -129 -3 -44 0
-59 20 -87 49 -72 61 -76 250 -79 l171 -4 188 194 188 193 0 95 0 95 -459 463
-460 462 -1388 -1 -1389 -1 -506 -506z"/>

<path d="M5030 5269 c-59 -24 -100 -85 -100 -149 0 -132 140 -209 249 -137 45
30 67 66 76 123 17 108 -118 206 -225 163z"/>

<path d="M4992 6943 c-72 -35 -114 -124 -93 -195 15 -48 51 -91 95 -112 110
-52 246 33 246 153 0 123 -138 209 -248 154z"/>

<path d="M3323 2196 c-22 -8 -55 -23 -71 -35 -28 -20 -72 -92 -72 -119 0 -9
54 -12 205 -12 226 0 221 -2 189 63 -27 53 -66 87 -118 102 -59 18 -78 18
-133 1z"/>

<path d="M6503 2166 c-86 -40 -131 -136 -120 -255 12 -138 96 -211 244 -211
150 0 233 85 233 240 0 92 -21 142 -79 191 -74 64 -185 78 -278 35z"/>
</g>
</svg>
